<svg width="66" height="22" viewBox="0 0 66 22" fill="none" xmlns="http://www.w3.org/2000/svg">
<g filter="url(#filter0_b_4973_35684)">
<rect width="65.3645" height="22" rx="11" fill="url(#paint0_linear_4973_35684)" fill-opacity="0.78"/>
<path d="M10 15.3852V6.61523H14.59V8.5195H11.78V10.644H14.02V12.5483H11.78V15.3852H10Z" fill="white"/>
<path d="M15.2344 15.3852V6.61523H17.0144V15.3852H15.2344Z" fill="white"/>
<path d="M17.788 15.3852V13.468L20.478 8.75268V8.5195H17.788V6.61523H22.798V8.61018L20.128 13.2478V13.481H22.798V15.3852H17.788Z" fill="white"/>
<path d="M23.3545 15.3852V13.468L26.0445 8.75268V8.5195H23.3545V6.61523H28.3645V8.61018L25.6945 13.2478V13.481H28.3645V15.3852H23.3545Z" fill="white"/>
<path d="M35.3952 14.5V8.95L33.7452 10.01L33.3452 9.3L35.4752 7.9H36.3452V14.5H35.3952ZM40.7412 14.6C40.3478 14.6 40.0012 14.5467 39.7012 14.44C39.4012 14.3267 39.1478 14.1433 38.9412 13.89C38.7345 13.6367 38.5745 13.2967 38.4612 12.87C38.3545 12.4433 38.3012 11.9167 38.3012 11.29C38.3012 10.6233 38.3545 10.0667 38.4612 9.62C38.5678 9.16667 38.7245 8.80667 38.9312 8.54C39.1445 8.27333 39.4012 8.08333 39.7012 7.97C40.0012 7.85 40.3445 7.79 40.7312 7.79C41.1378 7.79 41.4912 7.85 41.7912 7.97C42.0978 8.08333 42.3512 8.27333 42.5512 8.54C42.7578 8.80667 42.9112 9.16333 43.0112 9.61C43.1178 10.0567 43.1712 10.6167 43.1712 11.29C43.1712 12.1233 43.0778 12.7833 42.8912 13.27C42.7045 13.75 42.4312 14.0933 42.0712 14.3C41.7112 14.5 41.2678 14.6 40.7412 14.6ZM40.7412 13.77C40.9812 13.77 41.1912 13.7333 41.3712 13.66C41.5512 13.58 41.7012 13.45 41.8212 13.27C41.9478 13.0833 42.0412 12.83 42.1012 12.51C42.1612 12.1833 42.1912 11.7767 42.1912 11.29C42.1912 10.7567 42.1612 10.32 42.1012 9.98C42.0478 9.63333 41.9612 9.36333 41.8412 9.17C41.7212 8.97 41.5712 8.83 41.3912 8.75C41.2112 8.66333 40.9945 8.62 40.7412 8.62C40.5012 8.62 40.2878 8.66333 40.1012 8.75C39.9145 8.83 39.7612 8.96667 39.6412 9.16C39.5278 9.35333 39.4412 9.62333 39.3812 9.97C39.3212 10.3167 39.2912 10.76 39.2912 11.3C39.2912 11.7867 39.3212 12.1933 39.3812 12.52C39.4478 12.84 39.5412 13.09 39.6612 13.27C39.7878 13.45 39.9412 13.58 40.1212 13.66C40.3012 13.7333 40.5078 13.77 40.7412 13.77ZM46.3271 14.6C45.9338 14.6 45.5871 14.5467 45.2871 14.44C44.9871 14.3267 44.7338 14.1433 44.5271 13.89C44.3204 13.6367 44.1604 13.2967 44.0471 12.87C43.9404 12.4433 43.8871 11.9167 43.8871 11.29C43.8871 10.6233 43.9404 10.0667 44.0471 9.62C44.1538 9.16667 44.3104 8.80667 44.5171 8.54C44.7304 8.27333 44.9871 8.08333 45.2871 7.97C45.5871 7.85 45.9304 7.79 46.3171 7.79C46.7238 7.79 47.0771 7.85 47.3771 7.97C47.6838 8.08333 47.9371 8.27333 48.1371 8.54C48.3438 8.80667 48.4971 9.16333 48.5971 9.61C48.7038 10.0567 48.7571 10.6167 48.7571 11.29C48.7571 12.1233 48.6638 12.7833 48.4771 13.27C48.2904 13.75 48.0171 14.0933 47.6571 14.3C47.2971 14.5 46.8538 14.6 46.3271 14.6ZM46.3271 13.77C46.5671 13.77 46.7771 13.7333 46.9571 13.66C47.1371 13.58 47.2871 13.45 47.4071 13.27C47.5338 13.0833 47.6271 12.83 47.6871 12.51C47.7471 12.1833 47.7771 11.7767 47.7771 11.29C47.7771 10.7567 47.7471 10.32 47.6871 9.98C47.6338 9.63333 47.5471 9.36333 47.4271 9.17C47.3071 8.97 47.1571 8.83 46.9771 8.75C46.7971 8.66333 46.5804 8.62 46.3271 8.62C46.0871 8.62 45.8738 8.66333 45.6871 8.75C45.5004 8.83 45.3471 8.96667 45.2271 9.16C45.1138 9.35333 45.0271 9.62333 44.9671 9.97C44.9071 10.3167 44.8771 10.76 44.8771 11.3C44.8771 11.7867 44.9071 12.1933 44.9671 12.52C45.0338 12.84 45.1271 13.09 45.2471 13.27C45.3738 13.45 45.5271 13.58 45.7071 13.66C45.8871 13.7333 46.0938 13.77 46.3271 13.77ZM51.913 14.6C51.5197 14.6 51.173 14.5467 50.873 14.44C50.573 14.3267 50.3197 14.1433 50.113 13.89C49.9064 13.6367 49.7464 13.2967 49.633 12.87C49.5264 12.4433 49.473 11.9167 49.473 11.29C49.473 10.6233 49.5264 10.0667 49.633 9.62C49.7397 9.16667 49.8964 8.80667 50.103 8.54C50.3164 8.27333 50.573 8.08333 50.873 7.97C51.173 7.85 51.5164 7.79 51.903 7.79C52.3097 7.79 52.663 7.85 52.963 7.97C53.2697 8.08333 53.523 8.27333 53.723 8.54C53.9297 8.80667 54.083 9.16333 54.183 9.61C54.2897 10.0567 54.343 10.6167 54.343 11.29C54.343 12.1233 54.2497 12.7833 54.063 13.27C53.8764 13.75 53.603 14.0933 53.243 14.3C52.883 14.5 52.4397 14.6 51.913 14.6ZM51.913 13.77C52.153 13.77 52.363 13.7333 52.543 13.66C52.723 13.58 52.873 13.45 52.993 13.27C53.1197 13.0833 53.213 12.83 53.273 12.51C53.333 12.1833 53.363 11.7767 53.363 11.29C53.363 10.7567 53.333 10.32 53.273 9.98C53.2197 9.63333 53.133 9.36333 53.013 9.17C52.893 8.97 52.743 8.83 52.563 8.75C52.383 8.66333 52.1664 8.62 51.913 8.62C51.673 8.62 51.4597 8.66333 51.273 8.75C51.0864 8.83 50.933 8.96667 50.813 9.16C50.6997 9.35333 50.613 9.62333 50.553 9.97C50.493 10.3167 50.463 10.76 50.463 11.3C50.463 11.7867 50.493 12.1933 50.553 12.52C50.6197 12.84 50.713 13.09 50.833 13.27C50.9597 13.45 51.113 13.58 51.293 13.66C51.473 13.7333 51.6797 13.77 51.913 13.77Z" fill="white"/>
</g>
<defs>
<filter id="filter0_b_4973_35684" x="-4" y="-4" width="73.3652" height="30" filterUnits="userSpaceOnUse" color-interpolation-filters="sRGB">
<feFlood flood-opacity="0" result="BackgroundImageFix"/>
<feGaussianBlur in="BackgroundImageFix" stdDeviation="2"/>
<feComposite in2="SourceAlpha" operator="in" result="effect1_backgroundBlur_4973_35684"/>
<feBlend mode="normal" in="SourceGraphic" in2="effect1_backgroundBlur_4973_35684" result="shape"/>
</filter>
<linearGradient id="paint0_linear_4973_35684" x1="6.01768" y1="6.66564e-06" x2="63.2249" y2="1.88184" gradientUnits="userSpaceOnUse">
<stop stop-color="#BD5BF9"/>
<stop offset="0.378424" stop-color="#E726DF"/>
<stop offset="0.711907" stop-color="#FF70BD"/>
<stop offset="1" stop-color="#F795CA"/>
</linearGradient>
</defs>
</svg>
