<svg width="16" height="16" viewBox="0 0 16 16" fill="none" xmlns="http://www.w3.org/2000/svg">
<rect width="16" height="16" rx="8" fill="#D25B86"/>
<path d="M7.4 12C7.30476 12 7.22381 11.9743 7.15714 11.9229C7.09048 11.8714 7.05714 11.809 7.05714 11.7355V6.53444C7.05714 6.46097 7.09048 6.39853 7.15714 6.34711C7.22381 6.29568 7.30476 6.26997 7.4 6.26997H8.58571C8.69048 6.26997 8.77143 6.29568 8.82857 6.34711C8.89524 6.39853 8.92857 6.46097 8.92857 6.53444V11.7355C8.92857 11.809 8.89524 11.8714 8.82857 11.9229C8.77143 11.9743 8.69048 12 8.58571 12H7.4ZM7.34286 5.32231C7.2381 5.32231 7.15238 5.30028 7.08571 5.2562C7.02857 5.20478 7 5.13866 7 5.05785V4.26446C7 4.191 7.02857 4.12856 7.08571 4.07713C7.15238 4.02571 7.2381 4 7.34286 4H8.64286C8.74762 4 8.83333 4.02571 8.9 4.07713C8.96667 4.12856 9 4.191 9 4.26446V5.05785C9 5.13866 8.96667 5.20478 8.9 5.2562C8.83333 5.30028 8.74762 5.32231 8.64286 5.32231H7.34286Z" fill="white"/>
</svg>
