<svg width="20" height="21" viewBox="0 0 20 21" fill="none" xmlns="http://www.w3.org/2000/svg">
<path d="M6 16H14M9.0177 1.764L2.23539 7.03912C1.78202 7.39175 1.55534 7.56806 1.39203 7.78886C1.24737 7.98444 1.1396 8.20478 1.07403 8.43905C1 8.70352 1 8.9907 1 9.56505V16.8C1 17.9201 1 18.4801 1.21799 18.908C1.40973 19.2843 1.71569 19.5903 2.09202 19.782C2.51984 20 3.07989 20 4.2 20H15.8C16.9201 20 17.4802 20 17.908 19.782C18.2843 19.5903 18.5903 19.2843 18.782 18.908C19 18.4801 19 17.9201 19 16.8V9.56505C19 8.9907 19 8.70352 18.926 8.43905C18.8604 8.20478 18.7526 7.98444 18.608 7.78886C18.4447 7.56806 18.218 7.39175 17.7646 7.03913L10.9823 1.764C10.631 1.49075 10.4553 1.35412 10.2613 1.3016C10.0902 1.25526 9.9098 1.25526 9.73865 1.3016C9.54468 1.35412 9.36902 1.49075 9.0177 1.764Z" stroke="url(#paint0_linear_8952_9524)" stroke-opacity="0.78" stroke-width="2" stroke-linecap="round" stroke-linejoin="round"/>
<defs>
<linearGradient id="paint0_linear_8952_9524" x1="-2.51429" y1="10.6334" x2="18.9087" y2="10.1177" gradientUnits="userSpaceOnUse">
<stop stop-color="#972DA7"/>
<stop offset="0.378424" stop-color="#EB2F83"/>
<stop offset="0.711907" stop-color="#FC9867"/>
<stop offset="1" stop-color="#FFD62E"/>
</linearGradient>
</defs>
</svg>
