<svg width="55" height="54" viewBox="0 0 55 54" fill="none" xmlns="http://www.w3.org/2000/svg">
<rect x="0.25" width="54" height="54" rx="26" fill="#FEB966"/>
<path d="M37.0492 21.1002C36.3492 21.4002 35.5492 21.6002 34.7492 21.7002C35.5492 21.2002 36.2492 20.4002 36.5492 19.5002C35.7492 20.0002 34.9492 20.3002 33.9492 20.5002C33.2492 19.7002 32.1492 19.2002 31.0492 19.2002C28.8492 19.2002 27.0492 21.0002 27.0492 23.2002C27.0492 23.5002 27.0492 23.8002 27.1492 24.1002C23.8492 23.9002 20.8492 22.3002 18.8492 19.9002C18.5492 20.5002 18.3492 21.2002 18.3492 21.9002C18.3492 23.3002 19.0492 24.5002 20.1492 25.2002C19.4492 25.2002 18.8492 25.0002 18.3492 24.7002C18.3492 26.6002 19.7492 28.3002 21.5492 28.6002C21.2492 28.7002 20.8492 28.7002 20.4492 28.7002C20.1492 28.7002 19.9492 28.7002 19.6492 28.6002C20.1492 30.2002 21.6492 31.4002 23.4492 31.4002C22.0492 32.5002 20.3492 33.1002 18.4492 33.1002C18.1492 33.1002 17.8492 33.1002 17.4492 33.0002C19.2492 34.1002 21.3492 34.8002 23.6492 34.8002C31.0492 34.8002 35.0492 28.7002 35.0492 23.4002V22.9002C35.8492 22.6002 36.5492 21.9002 37.0492 21.1002Z" fill="white"/>
</svg>
