<svg width="20" height="20" viewBox="0 0 20 20" fill="none" xmlns="http://www.w3.org/2000/svg">
<path d="M10.0018 13C6.83173 13 4.0126 14.5306 2.2178 16.906C1.83151 17.4172 1.63836 17.6728 1.64468 18.0183C1.64956 18.2852 1.81716 18.6219 2.02717 18.7867C2.29899 19 2.67567 19 3.42904 19H16.5746C17.3279 19 17.7046 19 17.9764 18.7867C18.1864 18.6219 18.354 18.2852 18.3589 18.0183C18.3652 17.6728 18.1721 17.4172 17.7858 16.906C15.991 14.5306 13.1719 13 10.0018 13Z" stroke="#24262D" stroke-width="2" stroke-linecap="round" stroke-linejoin="round"/>
<path d="M10.0018 10C12.4871 10 14.5018 7.98528 14.5018 5.5C14.5018 3.01472 12.4871 1 10.0018 1C7.51652 1 5.5018 3.01472 5.5018 5.5C5.5018 7.98528 7.51652 10 10.0018 10Z" stroke="#24262D" stroke-width="2" stroke-linecap="round" stroke-linejoin="round"/>
</svg>
