<svg width="65" height="22" viewBox="0 0 65 22" fill="none" xmlns="http://www.w3.org/2000/svg">
<g filter="url(#filter0_b_4973_35681)">
<rect width="65" height="22" rx="11" fill="url(#paint0_linear_4973_35681)" fill-opacity="0.78"/>
<path d="M20.6673 5.31184C21.6551 5.80274 22.334 6.82209 22.334 8C22.334 9.17791 21.6551 10.1973 20.6673 10.6882M22.0007 14.1776C23.0083 14.6336 23.9157 15.3767 24.6673 16.3333M11.334 16.3333C12.6316 14.6817 14.3934 13.6667 16.334 13.6667C18.2745 13.6667 20.0363 14.6817 21.334 16.3333M19.334 8C19.334 9.65685 17.9908 11 16.334 11C14.6771 11 13.334 9.65685 13.334 8C13.334 6.34315 14.6771 5 16.334 5C17.9908 5 19.334 6.34315 19.334 8Z" stroke="white" stroke-linecap="round" stroke-linejoin="round"/>
<path d="M33.03 14.5V8.95L31.38 10.01L30.98 9.3L33.11 7.9H33.98V14.5H33.03ZM35.9059 15.71L36.3259 13.32H37.3659L36.6759 15.71H35.9059ZM38.5702 14.5V13.71L40.3602 11.84C40.6402 11.5533 40.8802 11.2967 41.0802 11.07C41.2868 10.8367 41.4435 10.6133 41.5502 10.4C41.6568 10.18 41.7102 9.95 41.7102 9.71C41.7102 9.30333 41.5968 9.02333 41.3702 8.87C41.1502 8.71667 40.8135 8.64 40.3602 8.64C40.1868 8.64 39.9935 8.65333 39.7802 8.68C39.5735 8.7 39.3735 8.72667 39.1802 8.76C38.9868 8.78667 38.8202 8.81667 38.6802 8.85L38.6202 8.08C38.7602 8.03333 38.9335 7.99 39.1402 7.95C39.3535 7.91 39.5835 7.87667 39.8302 7.85C40.0768 7.81667 40.3202 7.8 40.5602 7.8C41.2668 7.8 41.7968 7.94333 42.1502 8.23C42.5102 8.51 42.6902 8.96333 42.6902 9.59C42.6902 9.92333 42.6402 10.22 42.5402 10.48C42.4402 10.74 42.2868 10.9967 42.0802 11.25C41.8802 11.4967 41.6202 11.77 41.3002 12.07L39.6802 13.68H42.8302V14.5H38.5702ZM46.2461 14.6C45.9928 14.6 45.7294 14.5833 45.4561 14.55C45.1894 14.5233 44.9328 14.49 44.6861 14.45C44.4461 14.41 44.2461 14.37 44.0861 14.33L44.1561 13.57C44.3094 13.5967 44.4994 13.6267 44.7261 13.66C44.9528 13.6867 45.1894 13.7133 45.4361 13.74C45.6894 13.76 45.9228 13.77 46.1361 13.77C46.5894 13.77 46.9261 13.6733 47.1461 13.48C47.3661 13.2867 47.4761 12.9967 47.4761 12.61C47.4761 12.3367 47.4194 12.12 47.3061 11.96C47.1994 11.8 47.0494 11.6833 46.8561 11.61C46.6694 11.5367 46.4561 11.4967 46.2161 11.49H44.8861V10.68H46.2061C46.3728 10.68 46.5428 10.64 46.7161 10.56C46.8894 10.4733 47.0328 10.35 47.1461 10.19C47.2661 10.0233 47.3261 9.82667 47.3261 9.6C47.3261 9.25333 47.2261 9.00667 47.0261 8.86C46.8328 8.70667 46.5094 8.63 46.0561 8.63C45.8428 8.63 45.6228 8.64 45.3961 8.66C45.1694 8.68 44.9561 8.70667 44.7561 8.74C44.5561 8.76667 44.3861 8.79333 44.2461 8.82L44.1861 8.07C44.3194 8.03 44.4928 7.99 44.7061 7.95C44.9194 7.90333 45.1461 7.86667 45.3861 7.84C45.6328 7.80667 45.8728 7.79 46.1061 7.79C46.6394 7.79 47.0661 7.85333 47.3861 7.98C47.7128 8.1 47.9461 8.28667 48.0861 8.54C48.2328 8.79333 48.3061 9.12333 48.3061 9.53C48.3061 9.77667 48.2694 9.98667 48.1961 10.16C48.1228 10.3267 48.0328 10.47 47.9261 10.59C47.8194 10.7033 47.7128 10.7967 47.6061 10.87C47.5061 10.9367 47.4261 10.9867 47.3661 11.02C47.5861 11.1067 47.7761 11.2067 47.9361 11.32C48.0961 11.4267 48.2228 11.58 48.3161 11.78C48.4094 11.98 48.4561 12.25 48.4561 12.59C48.4561 13.05 48.3761 13.43 48.2161 13.73C48.0628 14.0233 47.8228 14.2433 47.4961 14.39C47.1694 14.53 46.7528 14.6 46.2461 14.6ZM52.592 14.5V13.27H49.462V12.55L51.222 7.9H52.292L50.442 12.44H52.592L52.612 10.49H53.542V12.44H54.312V13.27H53.542V14.5H52.592Z" fill="white"/>
</g>
<defs>
<filter id="filter0_b_4973_35681" x="-4" y="-4" width="73" height="30" filterUnits="userSpaceOnUse" color-interpolation-filters="sRGB">
<feFlood flood-opacity="0" result="BackgroundImageFix"/>
<feGaussianBlur in="BackgroundImageFix" stdDeviation="2"/>
<feComposite in2="SourceAlpha" operator="in" result="effect1_backgroundBlur_4973_35681"/>
<feBlend mode="normal" in="SourceGraphic" in2="effect1_backgroundBlur_4973_35681" result="shape"/>
</filter>
<linearGradient id="paint0_linear_4973_35681" x1="5.98413" y1="6.66564e-06" x2="62.8731" y2="1.86093" gradientUnits="userSpaceOnUse">
<stop stop-color="#BD5BF9"/>
<stop offset="0.378424" stop-color="#E726DF"/>
<stop offset="0.711907" stop-color="#FF70BD"/>
<stop offset="1" stop-color="#F795CA"/>
</linearGradient>
</defs>
</svg>
